<svg width="24" height="24" viewBox="0 0 24 24" fill="none" xmlns="http://www.w3.org/2000/svg">
<path d="M12 1.45C9.22562 1.48235 6.57431 2.56211 4.61239 4.45864C2.65047 6.35516 1.53347 8.9181 1.5 11.6C1.53347 14.2819 2.65047 16.8448 4.61239 18.7414C6.57431 20.6379 9.22562 21.7176 12 21.75C14.7744 21.7176 17.4257 20.6379 19.3876 18.7414C21.3495 16.8448 22.4665 14.2819 22.5 11.6C22.4665 8.9181 21.3495 6.35516 19.3876 4.45864C17.4257 2.56211 14.7744 1.48235 12 1.45ZM18 12.325H12.75V17.4H11.25V12.325H6V10.875H11.25V5.8H12.75V10.875H18V12.325Z" fill="#00A3FF"/>
</svg>
