<svg width="100" height="100" viewBox="0 0 100 100" fill="none" xmlns="http://www.w3.org/2000/svg">
<path d="M37.0278 88.8889C40.4796 88.8889 43.2778 86.0907 43.2778 82.6389C43.2778 79.1871 40.4796 76.3889 37.0278 76.3889C33.5761 76.3889 30.7778 79.1871 30.7778 82.6389C30.7778 86.0907 33.5761 88.8889 37.0278 88.8889Z" fill="#F3F3F3"/>
<path d="M75 88.8889C78.4518 88.8889 81.25 86.0907 81.25 82.6389C81.25 79.1871 78.4518 76.3889 75 76.3889C71.5482 76.3889 68.75 79.1871 68.75 82.6389C68.75 86.0907 71.5482 88.8889 75 88.8889Z" fill="#F3F3F3"/>
<path d="M91.8889 14.9167C91.6304 14.5981 91.3046 14.3407 90.9347 14.163C90.5649 13.9852 90.1603 13.8917 89.75 13.889H31.9167L33.7222 19.4445H86.1111L78.6945 52.7778H37.0278L24.3334 12.5834C24.196 12.1569 23.9576 11.7699 23.6384 11.4555C23.3191 11.1411 22.9286 10.9086 22.5 10.7779L11.1111 7.27785C10.7609 7.17024 10.393 7.13266 10.0283 7.16725C9.66355 7.20184 9.30922 7.30793 8.98551 7.47946C8.33173 7.82589 7.84235 8.41783 7.62502 9.12507C7.40769 9.83232 7.48021 10.5969 7.82664 11.2507C8.17306 11.9045 8.765 12.3939 9.47224 12.6112L19.4445 15.6667L32.1945 55.9445L27.6389 59.6667L27.2778 60.0278C26.151 61.3264 25.5122 62.9773 25.4717 64.6962C25.4311 66.415 25.9912 68.0942 27.0556 69.4445C27.8127 70.3652 28.7748 71.096 29.8649 71.5783C30.9549 72.0607 32.1428 72.2812 33.3334 72.2223H79.6945C80.4312 72.2223 81.1377 71.9296 81.6586 71.4087C82.1796 70.8878 82.4722 70.1812 82.4722 69.4445C82.4722 68.7078 82.1796 68.0013 81.6586 67.4803C81.1377 66.9594 80.4312 66.6667 79.6945 66.6667H32.8889C32.569 66.6558 32.2574 66.5626 31.9841 66.396C31.7108 66.2295 31.485 65.9953 31.3286 65.7161C31.1722 65.4368 31.0905 65.1219 31.0913 64.8019C31.0922 64.4818 31.1755 64.1674 31.3334 63.889L38.0278 58.3334H80.9167C81.5588 58.3491 82.1865 58.1418 82.693 57.7467C83.1994 57.3517 83.5533 56.7934 83.6945 56.1667L92.5 17.2778C92.5845 16.8637 92.5734 16.4358 92.4675 16.0266C92.3616 15.6175 92.1637 15.2379 91.8889 14.9167Z" fill="#F3F3F3"/>
</svg>
