<svg width="36" height="36" viewBox="0 0 36 36" fill="none" xmlns="http://www.w3.org/2000/svg">
<path d="M19.41 18L26.7 10.71C26.8638 10.5187 26.9494 10.2726 26.9397 10.021C26.93 9.76929 26.8256 9.53055 26.6475 9.35245C26.4694 9.17436 26.2307 9.07003 25.979 9.06031C25.7274 9.05058 25.4813 9.13619 25.29 9.30002L18 16.59L10.71 9.29002C10.5187 9.12619 10.2726 9.04059 10.0209 9.05031C9.76924 9.06003 9.53051 9.16436 9.35241 9.34245C9.17432 9.52055 9.06998 9.75929 9.06026 10.011C9.05054 10.2626 9.13615 10.5087 9.29997 10.7L16.59 18L9.28997 25.29C9.18529 25.3797 9.10027 25.49 9.04025 25.614C8.98022 25.7381 8.94649 25.8732 8.94117 26.011C8.93586 26.1487 8.95906 26.286 9.00934 26.4143C9.05961 26.5427 9.13587 26.6592 9.23332 26.7567C9.33078 26.8541 9.44733 26.9304 9.57565 26.9807C9.70398 27.0309 9.84131 27.0541 9.97903 27.0488C10.1167 27.0435 10.2519 27.0098 10.3759 26.9497C10.5 26.8897 10.6103 26.8047 10.7 26.7L18 19.41L25.29 26.7C25.4813 26.8638 25.7274 26.9494 25.979 26.9397C26.2307 26.93 26.4694 26.8257 26.6475 26.6476C26.8256 26.4695 26.93 26.2307 26.9397 25.9791C26.9494 25.7274 26.8638 25.4813 26.7 25.29L19.41 18Z" fill="black"/>
</svg>
