<svg width="100" height="100" viewBox="0 0 100 100" fill="none" xmlns="http://www.w3.org/2000/svg">
<path d="M32.0915 65.5251C29.1917 67.5605 27.0159 70.467 25.8799 73.8228C24.7439 77.1787 24.7069 80.8092 25.7742 84.1875C26.8414 87.5658 28.9575 90.5161 31.8152 92.6102C34.6729 94.7044 38.1236 95.8334 41.6665 95.8334V95.8334C45.575 95.837 49.3605 94.4668 52.3613 91.9624C55.362 89.4579 57.3871 85.9785 58.0826 82.1323C58.778 78.2862 58.0996 74.3179 56.166 70.9212C54.2323 67.5245 51.1663 64.9155 47.504 63.5501M16.6665 95.8334H4.1665V20.8334H95.8332V95.8334H66.6665H16.6665ZM33.3332 20.8334V4.16675H66.6665V20.8334H33.3332ZM37.4998 66.6668C41.9201 66.6668 46.1593 64.9108 49.2849 61.7852C52.4106 58.6596 54.1665 54.4204 54.1665 50.0001C54.1665 45.5798 52.4106 41.3406 49.2849 38.215C46.1593 35.0894 41.9201 33.3334 37.4998 33.3334C33.0796 33.3334 28.8403 35.0894 25.7147 38.215C22.5891 41.3406 20.8332 45.5798 20.8332 50.0001C20.8332 54.4204 22.5891 58.6596 25.7147 61.7852C28.8403 64.9108 33.0796 66.6668 37.4998 66.6668V66.6668ZM58.3665 74.4834C61.0613 75.1723 63.8857 75.1757 66.5822 74.4934C69.2787 73.8112 71.7616 72.4649 73.8046 70.5773C75.8475 68.6897 77.3855 66.3208 78.2785 63.6866C79.1715 61.0523 79.3909 58.2365 78.9169 55.4957C78.4429 52.7549 77.2905 50.1763 75.5647 47.9949C73.8389 45.8136 71.5946 44.0989 69.0364 43.007C66.4782 41.9152 63.6874 41.481 60.9183 41.7439C58.1493 42.0069 55.4901 42.9587 53.1832 44.5126L58.3665 74.4834Z" stroke="#F3F3F3" stroke-width="2"/>
</svg>
