<svg width="31" height="31" viewBox="0 0 31 31" fill="none" xmlns="http://www.w3.org/2000/svg">
<path d="M25.7204 18.697H22.0876V20.5376H25.7204C26.2048 20.5376 26.6407 20.9251 26.6407 21.458C26.6407 21.9908 26.2532 22.3783 25.7204 22.3783H3.05166C2.56729 22.3783 2.13135 22.7658 2.13135 23.2986C2.13135 23.783 2.51885 24.2189 3.05166 24.2189H25.7688C27.2704 24.2189 28.4813 23.008 28.4813 21.5064C28.4813 19.908 27.222 18.697 25.7204 18.697Z" fill="#B2C1C0"/>
<path d="M26.3986 12.4485L24.6064 12.3032C24.6064 12.2547 25.7205 5.6188 25.9627 4.26255C26.108 3.48755 26.3986 1.30786 29.1596 1.30786V3.14849C28.0455 3.14849 27.9002 3.58442 27.8033 4.40786C27.5127 5.76411 26.3986 12.3516 26.3986 12.4485Z" fill="#B2C1C0"/>
<path d="M26.495 5.95776H1.93719C1.01688 5.95776 0.871567 6.82964 1.01688 7.31401L3.77782 19.6171C3.92313 20.1015 4.40751 20.489 4.94032 20.489H24.2184C24.7028 20.489 25.1872 20.1015 25.2841 19.5687L27.3184 6.82964C27.3669 6.3937 26.9794 5.95776 26.495 5.95776ZM3.34188 10.075L2.85751 8.23433C2.80907 7.99214 2.95438 7.79839 3.19657 7.79839H6.63563C6.87782 7.79839 7.12001 7.99214 7.12001 8.23433L7.31376 10.075C7.36219 10.3171 7.16844 10.5109 6.92626 10.5109H3.87469C3.63251 10.5109 3.39032 10.3171 3.34188 10.075ZM4.89188 14.5796C4.64969 14.5796 4.40751 14.3859 4.31063 14.1437L3.97157 12.739C3.92313 12.4968 4.06844 12.3031 4.31063 12.3031H7.07157C7.31376 12.3031 7.55594 12.4968 7.55594 12.739L7.70125 14.0953C7.74969 14.3375 7.55594 14.5312 7.31376 14.5312C7.36219 14.5796 4.89188 14.5796 4.89188 14.5796ZM7.79813 18.6968H5.90907C5.66688 18.6968 5.42469 18.5031 5.32782 18.2609L4.98876 16.8562C4.94032 16.614 5.08563 16.4203 5.32782 16.4203H7.50751C7.74969 16.4203 7.99188 16.614 7.99188 16.8562L8.13719 18.2124C8.23407 18.4546 8.04032 18.6968 7.79813 18.6968ZM13.3684 18.2124C13.3684 18.4546 13.1747 18.6484 12.9325 18.6484H10.5591C10.3169 18.6484 10.0747 18.4546 10.0747 18.2124L9.92938 16.8562C9.88094 16.614 10.0747 16.4203 10.3169 16.4203H12.9325C13.1747 16.4203 13.3684 16.614 13.3684 16.8562V18.2124ZM13.3684 14.1437C13.3684 14.3859 13.1747 14.5796 12.9325 14.5796H10.1231C9.88094 14.5796 9.63876 14.3859 9.63876 14.1437L9.49344 12.7874C9.44501 12.5453 9.63876 12.3515 9.88094 12.3515H12.9325C13.1747 12.3515 13.3684 12.5453 13.3684 12.7874V14.1437ZM13.3684 10.075C13.3684 10.3171 13.1747 10.5109 12.9325 10.5109H9.68719C9.44501 10.5109 9.20282 10.3171 9.20282 10.075L8.96063 8.23433C8.91219 7.99214 9.10594 7.79839 9.34813 7.79839H12.8841C13.1263 7.79839 13.32 7.99214 13.32 8.23433C13.3684 8.23433 13.3684 10.075 13.3684 10.075ZM18.3091 18.2124C18.2606 18.4546 18.0669 18.6484 17.8247 18.6484H15.6934C15.4513 18.6484 15.2575 18.4546 15.2575 18.2124V16.8562C15.2575 16.614 15.4513 16.4203 15.6934 16.4203H18.0669C18.3091 16.4203 18.5028 16.614 18.4544 16.8562L18.3091 18.2124ZM18.745 14.1437C18.6966 14.3859 18.5028 14.5796 18.2606 14.5796H15.6934C15.4513 14.5796 15.2575 14.3859 15.2575 14.1437V12.7874C15.2575 12.5453 15.4513 12.3515 15.6934 12.3515H18.5028C18.745 12.3515 18.9388 12.5453 18.8903 12.7874L18.745 14.1437ZM19.1809 10.075C19.1325 10.3171 18.9388 10.5109 18.6966 10.5109H15.6934C15.4513 10.5109 15.2575 10.3171 15.2575 10.075V8.23433C15.2575 7.99214 15.4513 7.79839 15.6934 7.79839H18.9872C19.2294 7.79839 19.4231 7.99214 19.3747 8.23433L19.1809 10.075ZM23.395 18.2124C23.3466 18.4546 23.1044 18.6484 22.8622 18.6484H20.5372C20.295 18.6484 20.1013 18.4546 20.1497 18.2124L20.295 16.8562C20.3434 16.614 20.5372 16.4203 20.7794 16.4203H23.2497C23.4919 16.4203 23.6856 16.614 23.6372 16.8562L23.395 18.2124ZM24.0247 14.1437C23.9763 14.3859 23.7341 14.5796 23.4919 14.5796H20.9247C20.6825 14.5796 20.4888 14.3859 20.5372 14.1437L20.6825 12.7874C20.7309 12.5453 20.9247 12.3515 21.1669 12.3515H23.8309C24.0731 12.3515 24.2669 12.5453 24.2184 12.7874L24.0247 14.1437ZM24.6544 10.075C24.6059 10.3171 24.3638 10.5109 24.1216 10.5109H21.3606C21.1184 10.5109 20.9247 10.3171 20.9731 10.075L21.1669 8.23433C21.2153 7.99214 21.4091 7.79839 21.6513 7.79839H24.5091C24.7513 7.79839 24.945 7.99214 24.8966 8.23433L24.6544 10.075Z" fill="#F15744"/>
<path d="M5.95762 30.0312C7.45569 30.0312 8.67012 28.8168 8.67012 27.3187C8.67012 25.8206 7.45569 24.6062 5.95762 24.6062C4.45955 24.6062 3.24512 25.8206 3.24512 27.3187C3.24512 28.8168 4.45955 30.0312 5.95762 30.0312Z" fill="#62727A"/>
<path d="M5.95781 28.6749C6.70685 28.6749 7.31406 28.0677 7.31406 27.3187C7.31406 26.5696 6.70685 25.9624 5.95781 25.9624C5.20878 25.9624 4.60156 26.5696 4.60156 27.3187C4.60156 28.0677 5.20878 28.6749 5.95781 28.6749Z" fill="white"/>
<path d="M22.3297 30.0312C23.8278 30.0312 25.0422 28.8168 25.0422 27.3187C25.0422 25.8206 23.8278 24.6062 22.3297 24.6062C20.8316 24.6062 19.6172 25.8206 19.6172 27.3187C19.6172 28.8168 20.8316 30.0312 22.3297 30.0312Z" fill="#62727A"/>
<path d="M23.6861 27.3187C23.6861 28.0937 23.0564 28.6749 22.3299 28.6749C21.5549 28.6749 20.9736 28.0452 20.9736 27.3187C20.9736 26.5437 21.6033 25.9624 22.3299 25.9624C23.0564 25.9624 23.6861 26.5437 23.6861 27.3187Z" fill="white"/>
<path d="M29.5955 0.96875H28.2393V3.68125H29.5955C29.8377 3.68125 30.0314 3.4875 30.0314 3.24531V1.40469C30.0314 1.1625 29.8377 0.96875 29.5955 0.96875Z" fill="#62727A"/>
<path d="M5.95801 23.686C3.97207 23.686 2.3252 25.3329 2.3252 27.3188H9.59082C9.59082 25.2845 7.99238 23.686 5.95801 23.686Z" fill="#F15744"/>
<path d="M22.3301 23.686C20.3441 23.686 18.6973 25.3329 18.6973 27.3188H25.9629C25.9629 25.2845 24.316 23.686 22.3301 23.686Z" fill="#F15744"/>
</svg>
