<svg width="60" height="60" viewBox="0 0 60 60" fill="none" xmlns="http://www.w3.org/2000/svg">
<path d="M30 22.1894C25.6993 22.1894 22.1895 25.6991 22.1895 29.9999C22.1895 34.3007 25.6993 37.8105 30 37.8105C34.3008 37.8105 37.8106 34.3007 37.8106 29.9999C37.8106 25.6991 34.3008 22.1894 30 22.1894ZM53.4258 29.9999C53.4258 26.7655 53.4551 23.5605 53.2735 20.3319C53.0918 16.5819 52.2364 13.2538 49.4942 10.5116C46.7461 7.76358 43.4239 6.91397 39.6739 6.73233C36.4395 6.55069 33.2344 6.57999 30.0059 6.57999C26.7715 6.57999 23.5664 6.55069 20.3379 6.73233C16.5879 6.91397 13.2598 7.76944 10.5176 10.5116C7.76957 13.2597 6.91996 16.5819 6.73832 20.3319C6.55667 23.5663 6.58597 26.7714 6.58597 29.9999C6.58597 33.2284 6.55667 36.4394 6.73832 39.6679C6.91996 43.4179 7.77542 46.746 10.5176 49.4882C13.2657 52.2362 16.5879 53.0858 20.3379 53.2675C23.5723 53.4491 26.7774 53.4198 30.0059 53.4198C33.2403 53.4198 36.4453 53.4491 39.6739 53.2675C43.4239 53.0858 46.752 52.2304 49.4942 49.4882C52.2422 46.7401 53.0918 43.4179 53.2735 39.6679C53.461 36.4394 53.4258 33.2343 53.4258 29.9999ZM30 42.0175C23.3496 42.0175 17.9825 36.6503 17.9825 29.9999C17.9825 23.3495 23.3496 17.9823 30 17.9823C36.6504 17.9823 42.0176 23.3495 42.0176 29.9999C42.0176 36.6503 36.6504 42.0175 30 42.0175ZM42.5098 20.2968C40.9571 20.2968 39.7032 19.0429 39.7032 17.4901C39.7032 15.9374 40.9571 14.6835 42.5098 14.6835C44.0625 14.6835 45.3164 15.9374 45.3164 17.4901C45.3169 17.8588 45.2446 18.224 45.1037 18.5647C44.9629 18.9055 44.7561 19.2151 44.4954 19.4758C44.2347 19.7365 43.9251 19.9432 43.5844 20.0841C43.2437 20.225 42.8785 20.2972 42.5098 20.2968Z" fill="#A74732"/>
</svg>
