<svg width="50" height="41" viewBox="0 0 50 41" fill="none" xmlns="http://www.w3.org/2000/svg">
<g clip-path="url(#clip0)">
<path d="M50 4.97068C48.1602 5.7865 46.1832 6.33787 44.1082 6.58591C46.2264 5.31638 47.8527 3.30603 48.6186 0.910718C46.605 2.10561 44.402 2.94749 42.1047 3.39998C40.2334 1.40642 37.5676 0.160522 34.617 0.160522C28.9518 0.160522 24.3586 4.75349 24.3586 10.4183C24.3586 11.2224 24.4494 12.0052 24.6242 12.7562C16.0988 12.3283 8.54023 8.24451 3.48066 2.03826C2.59785 3.5533 2.09199 5.3156 2.09199 7.19529C2.09199 10.7543 3.90313 13.8939 6.65547 15.7336C5.02646 15.6826 3.4333 15.2426 2.00898 14.4504C2.0084 14.4933 2.0084 14.5363 2.0084 14.5795C2.0084 19.5496 5.54434 23.6957 10.2369 24.6381C8.72634 25.0489 7.14185 25.109 5.60449 24.8138C6.90977 28.8892 10.6982 31.8549 15.1869 31.9379C11.6762 34.689 7.25293 36.3291 2.44707 36.3291C1.61895 36.3291 0.802539 36.2804 0 36.1857C4.53965 39.0963 9.93164 40.7945 15.7246 40.7945C34.5932 40.7945 44.9109 25.1635 44.9109 11.608C44.9109 11.1631 44.9012 10.7207 44.8813 10.2808C46.8895 8.82905 48.6229 7.03086 50 4.97068Z" fill="#55ACEE"/>
</g>
<defs>
<clipPath id="clip0">
<rect width="50" height="40.8203" fill="white"/>
</clipPath>
</defs>
</svg>
