<svg width="60" height="60" viewBox="0 0 60 60" fill="none" xmlns="http://www.w3.org/2000/svg">
<path d="M55.1543 17.3496C54.8554 16.2366 54.2695 15.2215 53.4551 14.4061C52.6407 13.5906 51.6264 13.0034 50.5137 12.7031C46.418 11.6016 30 11.6016 30 11.6016C30 11.6016 13.582 11.6016 9.48633 12.6973C8.37317 12.9966 7.35835 13.5835 6.54378 14.3991C5.72922 15.2147 5.14359 16.2302 4.8457 17.3438C3.75 21.4453 3.75 30 3.75 30C3.75 30 3.75 38.5547 4.8457 42.6504C5.44922 44.9121 7.23047 46.6934 9.48633 47.2969C13.582 48.3984 30 48.3984 30 48.3984C30 48.3984 46.418 48.3984 50.5137 47.2969C52.7754 46.6934 54.5508 44.9121 55.1543 42.6504C56.25 38.5547 56.25 30 56.25 30C56.25 30 56.25 21.4453 55.1543 17.3496ZM24.7852 37.8516V22.1484L38.3789 29.9414L24.7852 37.8516Z" fill="#FF0000"/>
</svg>
